<mxfile host="app.diagrams.net" modified="2023-12-15T16:03:52.778Z" agent="Mozilla/5.0 (Windows NT 10.0; Win64; x64) AppleWebKit/537.36 (KHTML, like Gecko) Chrome/120.0.0.0 Safari/537.36" etag="4-uZ_YlGIYENkV4-Dr1G" version="22.1.9" type="device">
  <diagram name="Pagina-1" id="FXyGcG8aw2ZXNI5NaLja">
    <mxGraphModel dx="4176" dy="900" grid="1" gridSize="10" guides="1" tooltips="1" connect="1" arrows="1" fold="1" page="1" pageScale="1" pageWidth="1169" pageHeight="827" math="0" shadow="0">
      <root>
        <mxCell id="0" />
        <mxCell id="1" parent="0" />
        <mxCell id="ZtffvyYg2WjF2O-NpsjH-1" value="CLEANING-COMPANY" style="text;html=1;strokeColor=none;fillColor=none;align=center;verticalAlign=middle;whiteSpace=wrap;rounded=0;fontSize=17;" parent="1" vertex="1">
          <mxGeometry x="557.5" y="760" width="205" height="30" as="geometry" />
        </mxCell>
        <mxCell id="ZtffvyYg2WjF2O-NpsjH-2" value="SERVICES" style="text;html=1;strokeColor=none;fillColor=none;align=center;verticalAlign=middle;whiteSpace=wrap;rounded=0;fontSize=17;" parent="1" vertex="1">
          <mxGeometry x="800" y="760" width="150" height="30" as="geometry" />
        </mxCell>
        <mxCell id="ZtffvyYg2WjF2O-NpsjH-3" value="OFFERED-SERVICE" style="text;html=1;strokeColor=none;fillColor=none;align=center;verticalAlign=middle;whiteSpace=wrap;rounded=0;fontSize=17;" parent="1" vertex="1">
          <mxGeometry x="993" y="760" width="176" height="30" as="geometry" />
        </mxCell>
        <mxCell id="ZtffvyYg2WjF2O-NpsjH-7" value="&amp;nbsp;&lt;b&gt;&lt;font style=&quot;font-size: 20px;&quot;&gt;σ&lt;/font&gt;&lt;/b&gt; &lt;font style=&quot;font-size: 17px;&quot;&gt;Region = &#39;Piedmont&#39; or Region = &#39;Liguria&#39;&lt;/font&gt;" style="text;html=1;strokeColor=none;fillColor=none;align=center;verticalAlign=middle;whiteSpace=wrap;rounded=0;fontSize=17;" parent="1" vertex="1">
          <mxGeometry x="565" y="660" width="190" height="40" as="geometry" />
        </mxCell>
        <mxCell id="ZtffvyYg2WjF2O-NpsjH-9" value="&amp;nbsp;&lt;font style=&quot;font-size: 20px;&quot;&gt;&lt;b&gt;σ&lt;/b&gt;&lt;/font&gt; &lt;font style=&quot;font-size: 17px;&quot;&gt;Category =&lt;br&gt;&#39;IndoorCleaning&#39;&lt;/font&gt;" style="text;html=1;strokeColor=none;fillColor=none;align=center;verticalAlign=middle;whiteSpace=wrap;rounded=0;fontSize=17;" parent="1" vertex="1">
          <mxGeometry x="804" y="657.5" width="142" height="45" as="geometry" />
        </mxCell>
        <mxCell id="ZtffvyYg2WjF2O-NpsjH-13" value="" style="line;strokeWidth=1;direction=south;html=1;fontSize=14;" parent="1" vertex="1">
          <mxGeometry x="655" y="700" width="10" height="50" as="geometry" />
        </mxCell>
        <mxCell id="ZtffvyYg2WjF2O-NpsjH-14" value="" style="line;strokeWidth=1;direction=south;html=1;fontSize=14;" parent="1" vertex="1">
          <mxGeometry x="870" y="710" width="10" height="40" as="geometry" />
        </mxCell>
        <mxCell id="ZtffvyYg2WjF2O-NpsjH-16" value="" style="endArrow=none;html=1;rounded=0;edgeStyle=orthogonalEdgeStyle;fontSize=14;" parent="1" edge="1">
          <mxGeometry width="50" height="50" relative="1" as="geometry">
            <mxPoint x="890" y="540" as="sourcePoint" />
            <mxPoint x="980" y="600" as="targetPoint" />
            <Array as="points">
              <mxPoint x="980" y="540" />
            </Array>
          </mxGeometry>
        </mxCell>
        <mxCell id="ZtffvyYg2WjF2O-NpsjH-18" value="" style="endArrow=none;html=1;rounded=0;edgeStyle=orthogonalEdgeStyle;entryX=0;entryY=0.5;entryDx=0;entryDy=0;fontSize=14;" parent="1" target="ZtffvyYg2WjF2O-NpsjH-20" edge="1">
          <mxGeometry width="50" height="50" relative="1" as="geometry">
            <mxPoint x="660" y="660" as="sourcePoint" />
            <mxPoint x="820" y="540" as="targetPoint" />
            <Array as="points">
              <mxPoint x="660" y="540" />
            </Array>
          </mxGeometry>
        </mxCell>
        <mxCell id="ZtffvyYg2WjF2O-NpsjH-20" value="&lt;font style=&quot;&quot;&gt;&lt;font style=&quot;font-size: 20px;&quot;&gt;&lt;b&gt;⋈&lt;/b&gt;&lt;/font&gt;&lt;font style=&quot;font-size: 17px;&quot;&gt;&amp;nbsp;CId&lt;/font&gt;&lt;br style=&quot;font-size: 17px;&quot;&gt;&lt;/font&gt;" style="text;html=1;strokeColor=none;fillColor=none;align=center;verticalAlign=middle;whiteSpace=wrap;rounded=0;fontSize=17;" parent="1" vertex="1">
          <mxGeometry x="829.5" y="525" width="59" height="30" as="geometry" />
        </mxCell>
        <mxCell id="ZtffvyYg2WjF2O-NpsjH-21" value="" style="line;strokeWidth=1;direction=south;html=1;fontSize=14;" parent="1" vertex="1">
          <mxGeometry x="854" y="480" width="10" height="50" as="geometry" />
        </mxCell>
        <mxCell id="ZtffvyYg2WjF2O-NpsjH-22" value="&lt;b&gt;&lt;font style=&quot;font-size: 20px;&quot;&gt;GB&lt;/font&gt;&lt;/b&gt; SId" style="text;html=1;strokeColor=none;fillColor=none;align=center;verticalAlign=middle;whiteSpace=wrap;rounded=0;fontSize=17;" parent="1" vertex="1">
          <mxGeometry x="784" y="450" width="150" height="30" as="geometry" />
        </mxCell>
        <mxCell id="ZtffvyYg2WjF2O-NpsjH-23" value="" style="line;strokeWidth=1;direction=south;html=1;fontSize=14;" parent="1" vertex="1">
          <mxGeometry x="854" y="400" width="10" height="50" as="geometry" />
        </mxCell>
        <mxCell id="ZtffvyYg2WjF2O-NpsjH-24" value="&amp;nbsp;&lt;b&gt;&lt;font style=&quot;font-size: 20px;&quot;&gt;σ&lt;/font&gt;&lt;/b&gt; &lt;span style=&quot;font-size: 17px;&quot;&gt;COUNT(*)&amp;gt;1&lt;/span&gt;" style="text;html=1;strokeColor=none;fillColor=none;align=center;verticalAlign=middle;whiteSpace=wrap;rounded=0;fontSize=17;" parent="1" vertex="1">
          <mxGeometry x="784" y="370" width="150" height="30" as="geometry" />
        </mxCell>
        <mxCell id="ZtffvyYg2WjF2O-NpsjH-25" value="CLEANING-SERVICE" style="text;html=1;strokeColor=none;fillColor=none;align=center;verticalAlign=middle;whiteSpace=wrap;rounded=0;fontSize=17;" parent="1" vertex="1">
          <mxGeometry x="-10" y="760" width="180" height="30" as="geometry" />
        </mxCell>
        <mxCell id="ZtffvyYg2WjF2O-NpsjH-26" value="BUILDING" style="text;html=1;strokeColor=none;fillColor=none;align=center;verticalAlign=middle;whiteSpace=wrap;rounded=0;fontSize=17;" parent="1" vertex="1">
          <mxGeometry x="285" y="760" width="150" height="30" as="geometry" />
        </mxCell>
        <mxCell id="ZtffvyYg2WjF2O-NpsjH-27" value="" style="line;strokeWidth=1;direction=south;html=1;fontSize=14;" parent="1" vertex="1">
          <mxGeometry x="75" y="700" width="10" height="50" as="geometry" />
        </mxCell>
        <mxCell id="ZtffvyYg2WjF2O-NpsjH-28" value="" style="line;strokeWidth=1;direction=south;html=1;fontSize=14;" parent="1" vertex="1">
          <mxGeometry x="355" y="700" width="10" height="50" as="geometry" />
        </mxCell>
        <mxCell id="ZtffvyYg2WjF2O-NpsjH-29" value="&amp;nbsp;&lt;b&gt;&lt;font style=&quot;font-size: 20px;&quot;&gt;σ&lt;/font&gt;&lt;/b&gt; &lt;span style=&quot;font-size: 17px;&quot;&gt;Date&amp;gt;=1/1/2022 and Date&amp;lt;=31/12/2022&lt;/span&gt;" style="text;html=1;strokeColor=none;fillColor=none;align=center;verticalAlign=middle;whiteSpace=wrap;rounded=0;fontSize=17;" parent="1" vertex="1">
          <mxGeometry x="5" y="624" width="150" height="70" as="geometry" />
        </mxCell>
        <mxCell id="ZtffvyYg2WjF2O-NpsjH-30" value="&amp;nbsp;&lt;b&gt;&lt;font style=&quot;font-size: 20px;&quot;&gt;σ&lt;/font&gt;&lt;/b&gt; &lt;span style=&quot;font-size: 17px;&quot;&gt;BuildingType &amp;lt;&amp;gt; &#39;Office&#39;&lt;/span&gt;" style="text;html=1;strokeColor=none;fillColor=none;align=center;verticalAlign=middle;whiteSpace=wrap;rounded=0;fontSize=17;" parent="1" vertex="1">
          <mxGeometry x="257.5" y="670" width="205" height="30" as="geometry" />
        </mxCell>
        <mxCell id="ZtffvyYg2WjF2O-NpsjH-31" value="" style="line;strokeWidth=1;direction=south;html=1;fontSize=14;" parent="1" vertex="1">
          <mxGeometry x="355" y="620" width="10" height="50" as="geometry" />
        </mxCell>
        <mxCell id="ZtffvyYg2WjF2O-NpsjH-32" value="&amp;nbsp;&lt;font style=&quot;font-size: 20px;&quot;&gt;&lt;b&gt;σ&lt;/b&gt;&lt;/font&gt; &lt;span style=&quot;font-size: 17px;&quot;&gt;City = &#39;Turin&#39;&lt;/span&gt;" style="text;html=1;strokeColor=none;fillColor=none;align=center;verticalAlign=middle;whiteSpace=wrap;rounded=0;fontSize=17;" parent="1" vertex="1">
          <mxGeometry x="296.25" y="590" width="127.5" height="30" as="geometry" />
        </mxCell>
        <mxCell id="ZtffvyYg2WjF2O-NpsjH-33" value="" style="endArrow=none;html=1;rounded=0;edgeStyle=orthogonalEdgeStyle;fontSize=14;" parent="1" edge="1">
          <mxGeometry width="50" height="50" relative="1" as="geometry">
            <mxPoint x="80" y="620" as="sourcePoint" />
            <mxPoint x="190" y="540" as="targetPoint" />
            <Array as="points">
              <mxPoint x="80" y="540" />
            </Array>
          </mxGeometry>
        </mxCell>
        <mxCell id="ZtffvyYg2WjF2O-NpsjH-34" value="" style="endArrow=none;html=1;rounded=0;edgeStyle=orthogonalEdgeStyle;fontSize=14;" parent="1" edge="1">
          <mxGeometry width="50" height="50" relative="1" as="geometry">
            <mxPoint x="250" y="540" as="sourcePoint" />
            <mxPoint x="360" y="590" as="targetPoint" />
            <Array as="points">
              <mxPoint x="360" y="540" />
              <mxPoint x="360" y="590" />
            </Array>
          </mxGeometry>
        </mxCell>
        <mxCell id="ZtffvyYg2WjF2O-NpsjH-35" value="&lt;font style=&quot;&quot;&gt;&lt;b style=&quot;&quot;&gt;&lt;font style=&quot;font-size: 20px;&quot;&gt;⋈&amp;nbsp;&lt;/font&gt;&lt;/b&gt;&lt;span style=&quot;font-size: 17px;&quot;&gt;BId&lt;/span&gt;&lt;br style=&quot;font-size: 17px;&quot;&gt;&lt;/font&gt;" style="text;html=1;strokeColor=none;fillColor=none;align=center;verticalAlign=middle;whiteSpace=wrap;rounded=0;fontSize=17;" parent="1" vertex="1">
          <mxGeometry x="200" y="530" width="40" height="20" as="geometry" />
        </mxCell>
        <mxCell id="ZtffvyYg2WjF2O-NpsjH-36" value="" style="endArrow=none;html=1;rounded=0;edgeStyle=orthogonalEdgeStyle;fontSize=14;" parent="1" edge="1">
          <mxGeometry width="50" height="50" relative="1" as="geometry">
            <mxPoint x="220" y="530" as="sourcePoint" />
            <mxPoint x="490" y="330" as="targetPoint" />
            <Array as="points">
              <mxPoint x="220" y="330" />
              <mxPoint x="490" y="330" />
            </Array>
          </mxGeometry>
        </mxCell>
        <mxCell id="ZtffvyYg2WjF2O-NpsjH-37" value="" style="endArrow=none;html=1;rounded=0;edgeStyle=orthogonalEdgeStyle;fontSize=14;" parent="1" edge="1">
          <mxGeometry width="50" height="50" relative="1" as="geometry">
            <mxPoint x="550" y="330" as="sourcePoint" />
            <mxPoint x="859" y="370" as="targetPoint" />
            <Array as="points">
              <mxPoint x="689" y="330" />
              <mxPoint x="859" y="330" />
            </Array>
          </mxGeometry>
        </mxCell>
        <mxCell id="ZtffvyYg2WjF2O-NpsjH-39" value="&lt;span style=&quot;font-family: arial, helvetica, sans-serif; font-style: normal; font-variant-ligatures: normal; font-variant-caps: normal; letter-spacing: normal; orphans: 2; text-indent: 0px; text-transform: none; widows: 2; word-spacing: 0px; -webkit-text-stroke-width: 0px; text-decoration-thickness: initial; text-decoration-style: initial; text-decoration-color: initial; float: none; display: inline !important;&quot;&gt;&lt;font style=&quot;font-size: 20px;&quot;&gt;&lt;b&gt;⋉&lt;/b&gt;&lt;/font&gt;&lt;font style=&quot;font-weight: 400; font-size: 17px;&quot;&gt; &lt;/font&gt;&lt;font style=&quot;font-weight: 400; font-size: 17px;&quot;&gt;SId&lt;/font&gt;&lt;/span&gt;" style="text;whiteSpace=wrap;html=1;align=left;verticalAlign=middle;fontSize=17;fontColor=#000000;" parent="1" vertex="1">
          <mxGeometry x="500" y="320" width="50" height="20" as="geometry" />
        </mxCell>
        <mxCell id="ZtffvyYg2WjF2O-NpsjH-40" value="" style="line;strokeWidth=1;direction=south;html=1;fontSize=14;" parent="1" vertex="1">
          <mxGeometry x="515" y="260" width="10" height="50" as="geometry" />
        </mxCell>
        <mxCell id="ZtffvyYg2WjF2O-NpsjH-41" value="&lt;b&gt;&lt;font style=&quot;font-size: 20px;&quot;&gt;GB&lt;/font&gt;&lt;/b&gt; BId" style="text;html=1;strokeColor=none;fillColor=none;align=center;verticalAlign=middle;whiteSpace=wrap;rounded=0;fontSize=17;" parent="1" vertex="1">
          <mxGeometry x="445" y="230" width="150" height="30" as="geometry" />
        </mxCell>
        <mxCell id="ZtffvyYg2WjF2O-NpsjH-42" value="" style="line;strokeWidth=1;direction=south;html=1;fontSize=14;" parent="1" vertex="1">
          <mxGeometry x="515" y="180" width="10" height="50" as="geometry" />
        </mxCell>
        <mxCell id="ZtffvyYg2WjF2O-NpsjH-43" value="&amp;nbsp;&lt;font style=&quot;font-size: 20px;&quot;&gt;&lt;b&gt;σ&lt;/b&gt;&lt;/font&gt; &lt;span style=&quot;font-size: 17px;&quot;&gt;SUM(Cost) &amp;gt;= 1000&lt;/span&gt;" style="text;html=1;strokeColor=none;fillColor=none;align=center;verticalAlign=middle;whiteSpace=wrap;rounded=0;fontSize=17;" parent="1" vertex="1">
          <mxGeometry x="445" y="150" width="195" height="30" as="geometry" />
        </mxCell>
        <mxCell id="ZtffvyYg2WjF2O-NpsjH-44" value="" style="line;strokeWidth=1;direction=south;html=1;fontSize=14;" parent="1" vertex="1">
          <mxGeometry x="515" y="100" width="10" height="50" as="geometry" />
        </mxCell>
        <mxCell id="ZtffvyYg2WjF2O-NpsjH-45" value="&lt;span style=&quot;color: rgb(4, 12, 40); font-family: &amp;quot;Google Sans&amp;quot;, arial, sans-serif; font-style: normal; font-variant-ligatures: normal; font-variant-caps: normal; letter-spacing: normal; orphans: 2; text-align: left; text-indent: 0px; text-transform: none; widows: 2; word-spacing: 0px; -webkit-text-stroke-width: 0px; text-decoration-thickness: initial; text-decoration-style: initial; text-decoration-color: initial; background-color: rgb(255, 255, 255);&quot;&gt;&lt;b style=&quot;&quot;&gt;&lt;font style=&quot;font-size: 20px;&quot;&gt;π&lt;/font&gt;&lt;/b&gt;&lt;/span&gt;&lt;b style=&quot;color: rgb(4, 12, 40); font-weight: 500; font-family: &amp;quot;Google Sans&amp;quot;, arial, sans-serif; font-size: 17px; font-style: normal; font-variant-ligatures: normal; font-variant-caps: normal; letter-spacing: normal; orphans: 2; text-align: left; text-indent: 0px; text-transform: none; widows: 2; word-spacing: 0px; -webkit-text-stroke-width: 0px; text-decoration-thickness: initial; text-decoration-style: initial; text-decoration-color: initial; background-color: rgb(255, 255, 255);&quot;&gt; &lt;/b&gt;&lt;b style=&quot;color: rgb(4, 12, 40); font-weight: 500; font-family: &amp;quot;Google Sans&amp;quot;, arial, sans-serif; font-style: normal; font-variant-ligatures: normal; font-variant-caps: normal; letter-spacing: normal; orphans: 2; text-align: left; text-indent: 0px; text-transform: none; widows: 2; word-spacing: 0px; -webkit-text-stroke-width: 0px; text-decoration-thickness: initial; text-decoration-style: initial; text-decoration-color: initial; background-color: rgb(255, 255, 255); font-size: 17px;&quot;&gt;&lt;font style=&quot;font-size: 17px;&quot;&gt;BId, SUM(Cost), SUM(NumHours)&lt;/font&gt;&lt;/b&gt;" style="text;whiteSpace=wrap;html=1;verticalAlign=middle;fontSize=17;" parent="1" vertex="1">
          <mxGeometry x="375" y="60" width="290" height="30" as="geometry" />
        </mxCell>
        <mxCell id="ZtffvyYg2WjF2O-NpsjH-46" value="" style="endArrow=none;html=1;rounded=0;edgeStyle=orthogonalEdgeStyle;fontSize=14;" parent="1" edge="1">
          <mxGeometry width="50" height="50" relative="1" as="geometry">
            <mxPoint x="875" y="650" as="sourcePoint" />
            <mxPoint x="950" y="610" as="targetPoint" />
            <Array as="points">
              <mxPoint x="875" y="610" />
              <mxPoint x="956" y="610" />
            </Array>
          </mxGeometry>
        </mxCell>
        <mxCell id="ZtffvyYg2WjF2O-NpsjH-47" value="" style="endArrow=none;html=1;rounded=0;edgeStyle=orthogonalEdgeStyle;fontSize=14;" parent="1" edge="1">
          <mxGeometry width="50" height="50" relative="1" as="geometry">
            <mxPoint x="1002" y="610" as="sourcePoint" />
            <mxPoint x="1076" y="750" as="targetPoint" />
            <Array as="points">
              <mxPoint x="1076" y="610" />
            </Array>
          </mxGeometry>
        </mxCell>
        <mxCell id="ZtffvyYg2WjF2O-NpsjH-48" value="&lt;font style=&quot;&quot;&gt;&lt;b style=&quot;&quot;&gt;&lt;font style=&quot;font-size: 20px;&quot;&gt;⋈&lt;/font&gt;&lt;/b&gt;&amp;nbsp;&lt;font style=&quot;font-size: 17px;&quot;&gt;SId&lt;/font&gt;&lt;br style=&quot;font-size: 17px;&quot;&gt;&lt;/font&gt;" style="text;html=1;strokeColor=none;fillColor=none;align=center;verticalAlign=middle;whiteSpace=wrap;rounded=0;fontSize=17;" parent="1" vertex="1">
          <mxGeometry x="960" y="600" width="40" height="30" as="geometry" />
        </mxCell>
        <mxCell id="pWAXxdnbL1FAEqkc5UHM-1" value="CLEANING-COMPANY" style="text;html=1;strokeColor=none;fillColor=none;align=center;verticalAlign=middle;whiteSpace=wrap;rounded=0;fontSize=17;" vertex="1" parent="1">
          <mxGeometry x="-640" y="560" width="205" height="30" as="geometry" />
        </mxCell>
        <mxCell id="pWAXxdnbL1FAEqkc5UHM-2" value="SERVICES" style="text;html=1;strokeColor=none;fillColor=none;align=center;verticalAlign=middle;whiteSpace=wrap;rounded=0;fontSize=17;" vertex="1" parent="1">
          <mxGeometry x="-397.5" y="715.5" width="150" height="30" as="geometry" />
        </mxCell>
        <mxCell id="pWAXxdnbL1FAEqkc5UHM-3" value="OFFERED-SERVICE" style="text;html=1;strokeColor=none;fillColor=none;align=center;verticalAlign=middle;whiteSpace=wrap;rounded=0;fontSize=17;" vertex="1" parent="1">
          <mxGeometry x="-204.5" y="560" width="176" height="30" as="geometry" />
        </mxCell>
        <mxCell id="pWAXxdnbL1FAEqkc5UHM-4" value="&amp;nbsp;&lt;b&gt;&lt;font style=&quot;font-size: 20px;&quot;&gt;σ&lt;/font&gt;&lt;/b&gt; &lt;font style=&quot;font-size: 17px;&quot;&gt;Region = &#39;Piedmont&#39; or Region = &#39;Liguria&#39;&lt;/font&gt;" style="text;html=1;strokeColor=none;fillColor=none;align=center;verticalAlign=middle;whiteSpace=wrap;rounded=0;fontSize=17;" vertex="1" parent="1">
          <mxGeometry x="-632.5" y="460" width="190" height="40" as="geometry" />
        </mxCell>
        <mxCell id="pWAXxdnbL1FAEqkc5UHM-5" value="&amp;nbsp;&lt;font style=&quot;font-size: 20px;&quot;&gt;&lt;b&gt;σ&lt;/b&gt;&lt;/font&gt; &lt;font style=&quot;font-size: 17px;&quot;&gt;Category =&lt;br&gt;&#39;IndoorCleaning&#39;&lt;/font&gt;" style="text;html=1;strokeColor=none;fillColor=none;align=center;verticalAlign=middle;whiteSpace=wrap;rounded=0;fontSize=17;" vertex="1" parent="1">
          <mxGeometry x="-393.5" y="613" width="142" height="45" as="geometry" />
        </mxCell>
        <mxCell id="pWAXxdnbL1FAEqkc5UHM-6" value="" style="line;strokeWidth=1;direction=south;html=1;fontSize=14;" vertex="1" parent="1">
          <mxGeometry x="-542.5" y="500" width="10" height="50" as="geometry" />
        </mxCell>
        <mxCell id="pWAXxdnbL1FAEqkc5UHM-7" value="" style="line;strokeWidth=1;direction=south;html=1;fontSize=14;" vertex="1" parent="1">
          <mxGeometry x="-327.5" y="665.5" width="10" height="40" as="geometry" />
        </mxCell>
        <mxCell id="pWAXxdnbL1FAEqkc5UHM-8" value="" style="endArrow=none;html=1;rounded=0;edgeStyle=orthogonalEdgeStyle;fontSize=14;" edge="1" parent="1">
          <mxGeometry width="50" height="50" relative="1" as="geometry">
            <mxPoint x="-307.5" y="340" as="sourcePoint" />
            <mxPoint x="-217.5" y="400" as="targetPoint" />
            <Array as="points">
              <mxPoint x="-217.5" y="340" />
            </Array>
          </mxGeometry>
        </mxCell>
        <mxCell id="pWAXxdnbL1FAEqkc5UHM-9" value="" style="endArrow=none;html=1;rounded=0;edgeStyle=orthogonalEdgeStyle;entryX=0;entryY=0.5;entryDx=0;entryDy=0;fontSize=14;" edge="1" parent="1" target="pWAXxdnbL1FAEqkc5UHM-10">
          <mxGeometry width="50" height="50" relative="1" as="geometry">
            <mxPoint x="-537.5" y="460" as="sourcePoint" />
            <mxPoint x="-377.5" y="340" as="targetPoint" />
            <Array as="points">
              <mxPoint x="-537.5" y="340" />
            </Array>
          </mxGeometry>
        </mxCell>
        <mxCell id="pWAXxdnbL1FAEqkc5UHM-10" value="&lt;font style=&quot;&quot;&gt;&lt;font style=&quot;font-size: 20px;&quot;&gt;&lt;b&gt;⋈&lt;/b&gt;&lt;/font&gt;&lt;font style=&quot;font-size: 17px;&quot;&gt;&amp;nbsp;CId&lt;/font&gt;&lt;br style=&quot;font-size: 17px;&quot;&gt;&lt;/font&gt;" style="text;html=1;strokeColor=none;fillColor=none;align=center;verticalAlign=middle;whiteSpace=wrap;rounded=0;fontSize=17;" vertex="1" parent="1">
          <mxGeometry x="-368" y="325" width="59" height="30" as="geometry" />
        </mxCell>
        <mxCell id="pWAXxdnbL1FAEqkc5UHM-12" value="&lt;b&gt;&lt;font style=&quot;font-size: 20px;&quot;&gt;GB&lt;/font&gt;&lt;/b&gt; SId" style="text;html=1;strokeColor=none;fillColor=none;align=center;verticalAlign=middle;whiteSpace=wrap;rounded=0;fontSize=17;" vertex="1" parent="1">
          <mxGeometry x="-397.5" y="540" width="150" height="30" as="geometry" />
        </mxCell>
        <mxCell id="pWAXxdnbL1FAEqkc5UHM-14" value="&amp;nbsp;&lt;b&gt;&lt;font style=&quot;font-size: 20px;&quot;&gt;σ&lt;/font&gt;&lt;/b&gt; &lt;span style=&quot;font-size: 17px;&quot;&gt;COUNT(*)&amp;gt;1&lt;/span&gt;" style="text;html=1;strokeColor=none;fillColor=none;align=center;verticalAlign=middle;whiteSpace=wrap;rounded=0;fontSize=17;" vertex="1" parent="1">
          <mxGeometry x="-397.5" y="460" width="150" height="30" as="geometry" />
        </mxCell>
        <mxCell id="pWAXxdnbL1FAEqkc5UHM-15" value="CLEANING-SERVICE" style="text;html=1;strokeColor=none;fillColor=none;align=center;verticalAlign=middle;whiteSpace=wrap;rounded=0;fontSize=17;" vertex="1" parent="1">
          <mxGeometry x="-1210" y="710" width="180" height="30" as="geometry" />
        </mxCell>
        <mxCell id="pWAXxdnbL1FAEqkc5UHM-16" value="BUILDING" style="text;html=1;strokeColor=none;fillColor=none;align=center;verticalAlign=middle;whiteSpace=wrap;rounded=0;fontSize=17;" vertex="1" parent="1">
          <mxGeometry x="-915" y="710" width="150" height="30" as="geometry" />
        </mxCell>
        <mxCell id="pWAXxdnbL1FAEqkc5UHM-17" value="" style="line;strokeWidth=1;direction=south;html=1;fontSize=14;" vertex="1" parent="1">
          <mxGeometry x="-1125" y="650" width="10" height="50" as="geometry" />
        </mxCell>
        <mxCell id="pWAXxdnbL1FAEqkc5UHM-18" value="" style="line;strokeWidth=1;direction=south;html=1;fontSize=14;" vertex="1" parent="1">
          <mxGeometry x="-845" y="650" width="10" height="50" as="geometry" />
        </mxCell>
        <mxCell id="pWAXxdnbL1FAEqkc5UHM-19" value="&amp;nbsp;&lt;b&gt;&lt;font style=&quot;font-size: 20px;&quot;&gt;σ&lt;/font&gt;&lt;/b&gt; &lt;span style=&quot;font-size: 17px;&quot;&gt;Date&amp;gt;=1/1/2022 and Date&amp;lt;=31/12/2022&lt;/span&gt;" style="text;html=1;strokeColor=none;fillColor=none;align=center;verticalAlign=middle;whiteSpace=wrap;rounded=0;fontSize=17;" vertex="1" parent="1">
          <mxGeometry x="-1195" y="574" width="150" height="70" as="geometry" />
        </mxCell>
        <mxCell id="pWAXxdnbL1FAEqkc5UHM-20" value="&amp;nbsp;&lt;b&gt;&lt;font style=&quot;font-size: 20px;&quot;&gt;σ&lt;/font&gt;&lt;/b&gt; &lt;span style=&quot;font-size: 17px;&quot;&gt;BuildingType &amp;lt;&amp;gt; &#39;Office&#39;&lt;/span&gt;" style="text;html=1;strokeColor=none;fillColor=none;align=center;verticalAlign=middle;whiteSpace=wrap;rounded=0;fontSize=17;" vertex="1" parent="1">
          <mxGeometry x="-942.5" y="620" width="205" height="30" as="geometry" />
        </mxCell>
        <mxCell id="pWAXxdnbL1FAEqkc5UHM-21" value="" style="line;strokeWidth=1;direction=south;html=1;fontSize=14;" vertex="1" parent="1">
          <mxGeometry x="-845" y="570" width="10" height="50" as="geometry" />
        </mxCell>
        <mxCell id="pWAXxdnbL1FAEqkc5UHM-22" value="&amp;nbsp;&lt;font style=&quot;font-size: 20px;&quot;&gt;&lt;b&gt;σ&lt;/b&gt;&lt;/font&gt; &lt;span style=&quot;font-size: 17px;&quot;&gt;City = &#39;Turin&#39;&lt;/span&gt;" style="text;html=1;strokeColor=none;fillColor=none;align=center;verticalAlign=middle;whiteSpace=wrap;rounded=0;fontSize=17;" vertex="1" parent="1">
          <mxGeometry x="-903.75" y="540" width="127.5" height="30" as="geometry" />
        </mxCell>
        <mxCell id="pWAXxdnbL1FAEqkc5UHM-23" value="" style="endArrow=none;html=1;rounded=0;edgeStyle=orthogonalEdgeStyle;fontSize=14;" edge="1" parent="1">
          <mxGeometry width="50" height="50" relative="1" as="geometry">
            <mxPoint x="-1120" y="570" as="sourcePoint" />
            <mxPoint x="-1010" y="490" as="targetPoint" />
            <Array as="points">
              <mxPoint x="-1120" y="490" />
            </Array>
          </mxGeometry>
        </mxCell>
        <mxCell id="pWAXxdnbL1FAEqkc5UHM-24" value="" style="endArrow=none;html=1;rounded=0;edgeStyle=orthogonalEdgeStyle;fontSize=14;" edge="1" parent="1">
          <mxGeometry width="50" height="50" relative="1" as="geometry">
            <mxPoint x="-950" y="490" as="sourcePoint" />
            <mxPoint x="-840" y="540" as="targetPoint" />
            <Array as="points">
              <mxPoint x="-840" y="490" />
              <mxPoint x="-840" y="540" />
            </Array>
          </mxGeometry>
        </mxCell>
        <mxCell id="pWAXxdnbL1FAEqkc5UHM-25" value="&lt;font style=&quot;&quot;&gt;&lt;b style=&quot;&quot;&gt;&lt;font style=&quot;font-size: 20px;&quot;&gt;⋈&amp;nbsp;&lt;/font&gt;&lt;/b&gt;&lt;span style=&quot;font-size: 17px;&quot;&gt;BId&lt;/span&gt;&lt;br style=&quot;font-size: 17px;&quot;&gt;&lt;/font&gt;" style="text;html=1;strokeColor=none;fillColor=none;align=center;verticalAlign=middle;whiteSpace=wrap;rounded=0;fontSize=17;" vertex="1" parent="1">
          <mxGeometry x="-1000" y="480" width="40" height="20" as="geometry" />
        </mxCell>
        <mxCell id="pWAXxdnbL1FAEqkc5UHM-26" value="" style="endArrow=none;html=1;rounded=0;edgeStyle=orthogonalEdgeStyle;fontSize=14;" edge="1" parent="1">
          <mxGeometry width="50" height="50" relative="1" as="geometry">
            <mxPoint x="-980" y="480" as="sourcePoint" />
            <mxPoint x="-710" y="280" as="targetPoint" />
            <Array as="points">
              <mxPoint x="-980" y="280" />
              <mxPoint x="-710" y="280" />
            </Array>
          </mxGeometry>
        </mxCell>
        <mxCell id="pWAXxdnbL1FAEqkc5UHM-27" value="" style="endArrow=none;html=1;rounded=0;edgeStyle=orthogonalEdgeStyle;fontSize=14;" edge="1" parent="1">
          <mxGeometry width="50" height="50" relative="1" as="geometry">
            <mxPoint x="-650" y="280" as="sourcePoint" />
            <mxPoint x="-341" y="320" as="targetPoint" />
            <Array as="points">
              <mxPoint x="-511" y="280" />
              <mxPoint x="-341" y="280" />
            </Array>
          </mxGeometry>
        </mxCell>
        <mxCell id="pWAXxdnbL1FAEqkc5UHM-28" value="&lt;span style=&quot;font-family: arial, helvetica, sans-serif; font-style: normal; font-variant-ligatures: normal; font-variant-caps: normal; letter-spacing: normal; orphans: 2; text-indent: 0px; text-transform: none; widows: 2; word-spacing: 0px; -webkit-text-stroke-width: 0px; text-decoration-thickness: initial; text-decoration-style: initial; text-decoration-color: initial; float: none; display: inline !important;&quot;&gt;&lt;font style=&quot;font-size: 20px;&quot;&gt;&lt;b&gt;⋉&lt;/b&gt;&lt;/font&gt;&lt;font style=&quot;font-weight: 400; font-size: 17px;&quot;&gt; &lt;/font&gt;&lt;font style=&quot;font-weight: 400; font-size: 17px;&quot;&gt;SId&lt;/font&gt;&lt;/span&gt;" style="text;whiteSpace=wrap;html=1;align=left;verticalAlign=middle;fontSize=17;fontColor=#000000;" vertex="1" parent="1">
          <mxGeometry x="-700" y="270" width="50" height="20" as="geometry" />
        </mxCell>
        <mxCell id="pWAXxdnbL1FAEqkc5UHM-29" value="" style="line;strokeWidth=1;direction=south;html=1;fontSize=14;" vertex="1" parent="1">
          <mxGeometry x="-685" y="210" width="10" height="50" as="geometry" />
        </mxCell>
        <mxCell id="pWAXxdnbL1FAEqkc5UHM-30" value="&lt;b&gt;&lt;font style=&quot;font-size: 20px;&quot;&gt;GB&lt;/font&gt;&lt;/b&gt; BId" style="text;html=1;strokeColor=none;fillColor=none;align=center;verticalAlign=middle;whiteSpace=wrap;rounded=0;fontSize=17;" vertex="1" parent="1">
          <mxGeometry x="-755" y="180" width="150" height="30" as="geometry" />
        </mxCell>
        <mxCell id="pWAXxdnbL1FAEqkc5UHM-31" value="" style="line;strokeWidth=1;direction=south;html=1;fontSize=14;" vertex="1" parent="1">
          <mxGeometry x="-685" y="130" width="10" height="50" as="geometry" />
        </mxCell>
        <mxCell id="pWAXxdnbL1FAEqkc5UHM-32" value="&amp;nbsp;&lt;font style=&quot;font-size: 20px;&quot;&gt;&lt;b&gt;σ&lt;/b&gt;&lt;/font&gt; &lt;span style=&quot;font-size: 17px;&quot;&gt;SUM(Cost) &amp;gt;= 1000&lt;/span&gt;" style="text;html=1;strokeColor=none;fillColor=none;align=center;verticalAlign=middle;whiteSpace=wrap;rounded=0;fontSize=17;" vertex="1" parent="1">
          <mxGeometry x="-755" y="100" width="195" height="30" as="geometry" />
        </mxCell>
        <mxCell id="pWAXxdnbL1FAEqkc5UHM-33" value="" style="line;strokeWidth=1;direction=south;html=1;fontSize=14;" vertex="1" parent="1">
          <mxGeometry x="-685" y="50" width="10" height="50" as="geometry" />
        </mxCell>
        <mxCell id="pWAXxdnbL1FAEqkc5UHM-34" value="&lt;span style=&quot;color: rgb(4, 12, 40); font-family: &amp;quot;Google Sans&amp;quot;, arial, sans-serif; font-style: normal; font-variant-ligatures: normal; font-variant-caps: normal; letter-spacing: normal; orphans: 2; text-align: left; text-indent: 0px; text-transform: none; widows: 2; word-spacing: 0px; -webkit-text-stroke-width: 0px; text-decoration-thickness: initial; text-decoration-style: initial; text-decoration-color: initial; background-color: rgb(255, 255, 255);&quot;&gt;&lt;b style=&quot;&quot;&gt;&lt;font style=&quot;font-size: 20px;&quot;&gt;π&lt;/font&gt;&lt;/b&gt;&lt;/span&gt;&lt;b style=&quot;color: rgb(4, 12, 40); font-weight: 500; font-family: &amp;quot;Google Sans&amp;quot;, arial, sans-serif; font-size: 17px; font-style: normal; font-variant-ligatures: normal; font-variant-caps: normal; letter-spacing: normal; orphans: 2; text-align: left; text-indent: 0px; text-transform: none; widows: 2; word-spacing: 0px; -webkit-text-stroke-width: 0px; text-decoration-thickness: initial; text-decoration-style: initial; text-decoration-color: initial; background-color: rgb(255, 255, 255);&quot;&gt; &lt;/b&gt;&lt;b style=&quot;color: rgb(4, 12, 40); font-weight: 500; font-family: &amp;quot;Google Sans&amp;quot;, arial, sans-serif; font-style: normal; font-variant-ligatures: normal; font-variant-caps: normal; letter-spacing: normal; orphans: 2; text-align: left; text-indent: 0px; text-transform: none; widows: 2; word-spacing: 0px; -webkit-text-stroke-width: 0px; text-decoration-thickness: initial; text-decoration-style: initial; text-decoration-color: initial; background-color: rgb(255, 255, 255); font-size: 17px;&quot;&gt;&lt;font style=&quot;font-size: 17px;&quot;&gt;BId, SUM(Cost), SUM(NumHours)&lt;/font&gt;&lt;/b&gt;" style="text;whiteSpace=wrap;html=1;verticalAlign=middle;fontSize=17;" vertex="1" parent="1">
          <mxGeometry x="-825" y="10" width="290" height="30" as="geometry" />
        </mxCell>
        <mxCell id="pWAXxdnbL1FAEqkc5UHM-35" value="" style="endArrow=none;html=1;rounded=0;edgeStyle=orthogonalEdgeStyle;fontSize=14;" edge="1" parent="1">
          <mxGeometry width="50" height="50" relative="1" as="geometry">
            <mxPoint x="-322.5" y="450" as="sourcePoint" />
            <mxPoint x="-247.5" y="410" as="targetPoint" />
            <Array as="points">
              <mxPoint x="-322.5" y="410" />
              <mxPoint x="-241.5" y="410" />
            </Array>
          </mxGeometry>
        </mxCell>
        <mxCell id="pWAXxdnbL1FAEqkc5UHM-36" value="" style="endArrow=none;html=1;rounded=0;edgeStyle=orthogonalEdgeStyle;fontSize=14;" edge="1" parent="1">
          <mxGeometry width="50" height="50" relative="1" as="geometry">
            <mxPoint x="-195.5" y="410" as="sourcePoint" />
            <mxPoint x="-121.5" y="550" as="targetPoint" />
            <Array as="points">
              <mxPoint x="-121.5" y="410" />
            </Array>
          </mxGeometry>
        </mxCell>
        <mxCell id="pWAXxdnbL1FAEqkc5UHM-37" value="&lt;font style=&quot;&quot;&gt;&lt;b style=&quot;&quot;&gt;&lt;font style=&quot;font-size: 20px;&quot;&gt;⋈&lt;/font&gt;&lt;/b&gt;&amp;nbsp;&lt;font style=&quot;font-size: 17px;&quot;&gt;SId&lt;/font&gt;&lt;br style=&quot;font-size: 17px;&quot;&gt;&lt;/font&gt;" style="text;html=1;strokeColor=none;fillColor=none;align=center;verticalAlign=middle;whiteSpace=wrap;rounded=0;fontSize=17;" vertex="1" parent="1">
          <mxGeometry x="-237.5" y="400" width="40" height="30" as="geometry" />
        </mxCell>
        <mxCell id="pWAXxdnbL1FAEqkc5UHM-38" value="" style="line;strokeWidth=1;direction=south;html=1;fontSize=14;" vertex="1" parent="1">
          <mxGeometry x="-327.5" y="490" width="10" height="40" as="geometry" />
        </mxCell>
        <mxCell id="pWAXxdnbL1FAEqkc5UHM-39" value="" style="line;strokeWidth=1;direction=south;html=1;fontSize=14;" vertex="1" parent="1">
          <mxGeometry x="-327.5" y="573" width="10" height="40" as="geometry" />
        </mxCell>
        <mxCell id="pWAXxdnbL1FAEqkc5UHM-40" value="CLEANING-COMPANY" style="text;html=1;strokeColor=none;fillColor=none;align=center;verticalAlign=middle;whiteSpace=wrap;rounded=0;fontSize=17;" vertex="1" parent="1">
          <mxGeometry x="-2270" y="607.5" width="205" height="30" as="geometry" />
        </mxCell>
        <mxCell id="pWAXxdnbL1FAEqkc5UHM-41" value="SERVICES" style="text;html=1;strokeColor=none;fillColor=none;align=center;verticalAlign=middle;whiteSpace=wrap;rounded=0;fontSize=17;" vertex="1" parent="1">
          <mxGeometry x="-2320" y="325" width="150" height="30" as="geometry" />
        </mxCell>
        <mxCell id="pWAXxdnbL1FAEqkc5UHM-42" value="OFFERED-SERVICE" style="text;html=1;strokeColor=none;fillColor=none;align=center;verticalAlign=middle;whiteSpace=wrap;rounded=0;fontSize=17;" vertex="1" parent="1">
          <mxGeometry x="-1939" y="607.5" width="176" height="30" as="geometry" />
        </mxCell>
        <mxCell id="pWAXxdnbL1FAEqkc5UHM-43" value="&amp;nbsp;&lt;b&gt;&lt;font style=&quot;font-size: 20px;&quot;&gt;σ&lt;/font&gt;&lt;/b&gt; &lt;font style=&quot;font-size: 17px;&quot;&gt;Region = &#39;Piedmont&#39; or Region = &#39;Liguria&#39;&lt;/font&gt;" style="text;html=1;strokeColor=none;fillColor=none;align=center;verticalAlign=middle;whiteSpace=wrap;rounded=0;fontSize=17;" vertex="1" parent="1">
          <mxGeometry x="-2262.5" y="507.5" width="190" height="40" as="geometry" />
        </mxCell>
        <mxCell id="pWAXxdnbL1FAEqkc5UHM-44" value="&amp;nbsp;&lt;font style=&quot;font-size: 20px;&quot;&gt;&lt;b&gt;σ&lt;/b&gt;&lt;/font&gt; &lt;font style=&quot;font-size: 17px;&quot;&gt;Category =&lt;br&gt;&#39;IndoorCleaning&#39;&lt;/font&gt;" style="text;html=1;strokeColor=none;fillColor=none;align=center;verticalAlign=middle;whiteSpace=wrap;rounded=0;fontSize=17;" vertex="1" parent="1">
          <mxGeometry x="-2316" y="222.5" width="142" height="45" as="geometry" />
        </mxCell>
        <mxCell id="pWAXxdnbL1FAEqkc5UHM-45" value="" style="line;strokeWidth=1;direction=south;html=1;fontSize=14;" vertex="1" parent="1">
          <mxGeometry x="-2172.5" y="547.5" width="10" height="50" as="geometry" />
        </mxCell>
        <mxCell id="pWAXxdnbL1FAEqkc5UHM-46" value="" style="line;strokeWidth=1;direction=south;html=1;fontSize=14;" vertex="1" parent="1">
          <mxGeometry x="-2250" y="275" width="10" height="40" as="geometry" />
        </mxCell>
        <mxCell id="pWAXxdnbL1FAEqkc5UHM-47" value="" style="endArrow=none;html=1;rounded=0;edgeStyle=orthogonalEdgeStyle;fontSize=14;" edge="1" parent="1">
          <mxGeometry width="50" height="50" relative="1" as="geometry">
            <mxPoint x="-1937.5" y="387.5" as="sourcePoint" />
            <mxPoint x="-1850" y="580" as="targetPoint" />
            <Array as="points">
              <mxPoint x="-1847.5" y="387.5" />
            </Array>
          </mxGeometry>
        </mxCell>
        <mxCell id="pWAXxdnbL1FAEqkc5UHM-48" value="" style="endArrow=none;html=1;rounded=0;edgeStyle=orthogonalEdgeStyle;entryX=0;entryY=0.5;entryDx=0;entryDy=0;fontSize=14;" edge="1" parent="1" target="pWAXxdnbL1FAEqkc5UHM-49">
          <mxGeometry width="50" height="50" relative="1" as="geometry">
            <mxPoint x="-2167.5" y="507.5" as="sourcePoint" />
            <mxPoint x="-2007.5" y="387.5" as="targetPoint" />
            <Array as="points">
              <mxPoint x="-2167.5" y="387.5" />
            </Array>
          </mxGeometry>
        </mxCell>
        <mxCell id="pWAXxdnbL1FAEqkc5UHM-49" value="&lt;font style=&quot;&quot;&gt;&lt;font style=&quot;font-size: 20px;&quot;&gt;&lt;b&gt;⋈&lt;/b&gt;&lt;/font&gt;&lt;font style=&quot;font-size: 17px;&quot;&gt;&amp;nbsp;CId&lt;/font&gt;&lt;br style=&quot;font-size: 17px;&quot;&gt;&lt;/font&gt;" style="text;html=1;strokeColor=none;fillColor=none;align=center;verticalAlign=middle;whiteSpace=wrap;rounded=0;fontSize=17;" vertex="1" parent="1">
          <mxGeometry x="-1998" y="372.5" width="59" height="30" as="geometry" />
        </mxCell>
        <mxCell id="pWAXxdnbL1FAEqkc5UHM-50" value="" style="endArrow=none;html=1;rounded=0;edgeStyle=orthogonalEdgeStyle;fontSize=14;" edge="1" parent="1">
          <mxGeometry width="50" height="50" relative="1" as="geometry">
            <mxPoint x="-2245" y="215" as="sourcePoint" />
            <mxPoint x="-2170" y="175" as="targetPoint" />
            <Array as="points">
              <mxPoint x="-2245" y="175" />
              <mxPoint x="-2164" y="175" />
            </Array>
          </mxGeometry>
        </mxCell>
        <mxCell id="pWAXxdnbL1FAEqkc5UHM-51" value="" style="endArrow=none;html=1;rounded=0;edgeStyle=orthogonalEdgeStyle;fontSize=14;" edge="1" parent="1">
          <mxGeometry width="50" height="50" relative="1" as="geometry">
            <mxPoint x="-2100" y="175" as="sourcePoint" />
            <mxPoint x="-1960" y="360" as="targetPoint" />
            <Array as="points">
              <mxPoint x="-1960" y="175" />
              <mxPoint x="-1960" y="373" />
            </Array>
          </mxGeometry>
        </mxCell>
        <mxCell id="pWAXxdnbL1FAEqkc5UHM-52" value="&lt;font style=&quot;&quot;&gt;&lt;b style=&quot;&quot;&gt;&lt;font style=&quot;font-size: 20px;&quot;&gt;⋈&lt;/font&gt;&lt;/b&gt;&amp;nbsp;&lt;font style=&quot;font-size: 17px;&quot;&gt;SId&lt;/font&gt;&lt;br style=&quot;font-size: 17px;&quot;&gt;&lt;/font&gt;" style="text;html=1;strokeColor=none;fillColor=none;align=center;verticalAlign=middle;whiteSpace=wrap;rounded=0;fontSize=17;" vertex="1" parent="1">
          <mxGeometry x="-2150" y="158" width="40" height="30" as="geometry" />
        </mxCell>
        <mxCell id="pWAXxdnbL1FAEqkc5UHM-53" value="10 ^ 3" style="text;html=1;align=center;verticalAlign=middle;resizable=0;points=[];autosize=1;strokeColor=none;fillColor=none;" vertex="1" parent="1">
          <mxGeometry x="-2170" y="418" width="60" height="30" as="geometry" />
        </mxCell>
        <mxCell id="pWAXxdnbL1FAEqkc5UHM-54" value="2 * 10^5" style="text;html=1;align=center;verticalAlign=middle;resizable=0;points=[];autosize=1;strokeColor=none;fillColor=none;" vertex="1" parent="1">
          <mxGeometry x="-1935" y="448" width="70" height="30" as="geometry" />
        </mxCell>
        <mxCell id="pWAXxdnbL1FAEqkc5UHM-56" value="2 * 10^4" style="text;html=1;align=center;verticalAlign=middle;resizable=0;points=[];autosize=1;strokeColor=none;fillColor=none;" vertex="1" parent="1">
          <mxGeometry x="-1960" y="325" width="70" height="30" as="geometry" />
        </mxCell>
        <mxCell id="pWAXxdnbL1FAEqkc5UHM-62" value="2 * 10^3&lt;br&gt;" style="text;html=1;align=center;verticalAlign=middle;resizable=0;points=[];autosize=1;strokeColor=none;fillColor=none;" vertex="1" parent="1">
          <mxGeometry x="-1900" y="210" width="70" height="30" as="geometry" />
        </mxCell>
      </root>
    </mxGraphModel>
  </diagram>
</mxfile>
